<?xml version="1.0" encoding="utf-8"?><!-- Uploaded to: SVG Repo, www.svgrepo.com, Generator: SVG Repo Mixer Tools -->
<svg width="800px" height="800px" viewBox="0 0 24 24" id="contrass" xmlns="http://www.w3.org/2000/svg" class="icon multi-color"><path id="tertiary-fill" d="M8,10,6,12l2,2v5H6a1,1,0,0,1-1-1V14.9L2.8,12.71a1,1,0,0,1,0-1.42L5,9.1V6A1,1,0,0,1,6,5H8Z" style="fill: #b7b7b7; stroke-width: 2;"></path><path id="primary-stroke" d="M21.19,11.29,19,9.1V6a1,1,0,0,0-1-1H14.9L12.71,2.81a1,1,0,0,0-1.42,0L9.1,5H6A1,1,0,0,0,5,6V9.1L2.81,11.29a1,1,0,0,0,0,1.42L5,14.9V18a1,1,0,0,0,1,1H9.1l2.19,2.19a1,1,0,0,0,1.42,0L14.9,19H18a1,1,0,0,0,1-1V14.9l2.19-2.19A1,1,0,0,0,21.19,11.29Z" style="fill: none; stroke: rgb(0, 0, 0); stroke-linecap: round; stroke-linejoin: round; stroke-width: 2;"></path><path id="secondary-fill" d="M12,7a1,1,0,0,0-1,1v8a1,1,0,0,0,1,1A5,5,0,0,0,12,7Z" style="fill: rgb(44, 169, 188); stroke-width: 2;"></path></svg>